<?xml version="1.0" encoding="utf-8"?>
<!-- Generator: Adobe Illustrator 24.3.0, SVG Export Plug-In . SVG Version: 6.00 Build 0)  -->
<svg version="1.1" id="Layer_1" xmlns="http://www.w3.org/2000/svg" xmlns:xlink="http://www.w3.org/1999/xlink" x="0px" y="0px"
	 viewBox="0 0 12 12" style="enable-background:new 0 0 12 12;" xml:space="preserve">
<style type="text/css">
	.st0{fill:#EA4335;}
</style>
<path class="st0" d="M6.5,8h-1C5.2,8,5,7.8,5,7.5H1.5v2c0,0.6,0.4,1,1,1h7c0.6,0,1-0.4,1-1v-2H7C7,7.8,6.8,8,6.5,8z M10,3.5H8
	c0-1.1-0.9-2-2-2s-2,0.9-2,2H2c-0.5,0-1,0.5-1,1V6c0,0.6,0.4,1,1,1h3V6.5C5,6.2,5.2,6,5.5,6h1C6.8,6,7,6.2,7,6.5V7h3
	c0.6,0,1-0.4,1-1V4.5C11,4,10.6,3.5,10,3.5z M5,3.5c0-0.5,0.4-1,1-1s1,0.5,1,1H5L5,3.5z"/>
</svg>
