<?xml version="1.0" encoding="utf-8"?>
<!-- Generator: Adobe Illustrator 24.3.0, SVG Export Plug-In . SVG Version: 6.00 Build 0)  -->
<svg version="1.1" id="Layer_1" xmlns="http://www.w3.org/2000/svg" xmlns:xlink="http://www.w3.org/1999/xlink" x="0px" y="0px"
	 viewBox="0 0 15 12" style="enable-background:new 0 0 15 12;" xml:space="preserve">
<style type="text/css">
	.st0{fill:#4285F4;}
</style>
<path class="st0" d="M14.6,3.6L8,1.6C7.7,1.5,7.3,1.5,7,1.6l-6.5,2c-0.6,0.2-0.6,0.9,0,1.1L1.6,5C1.3,5.3,1.1,5.7,1.1,6.1
	C0.9,6.2,0.8,6.5,0.8,6.8c0,0.3,0.1,0.5,0.3,0.6L0.5,10c-0.1,0.2,0.1,0.5,0.4,0.5h1.3c0.2,0,0.4-0.2,0.4-0.5L1.9,7.4
	C2.1,7.2,2.2,7,2.2,6.8c0-0.3-0.2-0.5-0.4-0.6c0-0.4,0.2-0.7,0.5-0.9L7,6.7c0.2,0.1,0.6,0.1,1.1,0l6.5-2C15.1,4.5,15.1,3.8,14.6,3.6
	z M8.3,7.4C7.6,7.6,7,7.5,6.7,7.4l-3.4-1L3,9c0,0.8,2,1.5,4.5,1.5S12,9.8,12,9l-0.3-2.7L8.3,7.4z"/>
</svg>
