<?xml version="1.0" encoding="utf-8"?>
<!-- Generator: Adobe Illustrator 24.3.0, SVG Export Plug-In . SVG Version: 6.00 Build 0)  -->
<svg version="1.1" id="Layer_1" xmlns="http://www.w3.org/2000/svg" xmlns:xlink="http://www.w3.org/1999/xlink" x="0px" y="0px"
	 viewBox="0 0 12 12" style="enable-background:new 0 0 12 12;" xml:space="preserve">
<style type="text/css">
	.st0{fill:#4285F4;}
</style>
<path class="st0" d="M11,5.5h-0.6C10.3,4.7,10,3.8,9.5,3.2l0.4-0.4c0.2-0.2,0.2-0.5,0-0.7s-0.5-0.2-0.7,0L8.8,2.5
	C8.2,2,7.4,1.6,6.5,1.5V1c0-0.3-0.2-0.5-0.5-0.5S5.5,0.7,5.5,1v0.5c-0.8,0-1.7,0.4-2.3,1L2.8,2.1c-0.2-0.2-0.5-0.2-0.7,0
	s-0.2,0.5,0,0.7l0.4,0.4C2,3.8,1.6,4.7,1.5,5.5H1C0.7,5.5,0.5,5.7,0.5,6S0.7,6.5,1,6.5h0.5c0.1,0.8,0.5,1.6,1,2.3L2.1,9.2
	c-0.2,0.2-0.2,0.5,0,0.7s0.5,0.2,0.7,0l0.4-0.4c0.6,0.6,1.5,0.9,2.3,0.9V11c0,0.3,0.2,0.5,0.5,0.5s0.5-0.2,0.5-0.5v-0.6
	c0.8-0.1,1.6-0.4,2.3-0.9l0.4,0.4c0.2,0.2,0.5,0.2,0.7,0s0.2-0.5,0-0.7L9.5,8.8c0.6-0.6,0.9-1.4,0.9-2.3H11c0.3,0,0.5-0.2,0.5-0.5
	S11.3,5.5,11,5.5z M4.5,8C4.2,8,4,7.8,4,7.5S4.2,7,4.5,7S5,7.2,5,7.5S4.8,8,4.5,8z M4.8,6C4.3,6,4,5.7,4,5.2s0.3-0.8,0.8-0.8
	s0.8,0.3,0.8,0.8S5.2,6,4.8,6z M7.2,7.5c-0.4,0-0.8-0.3-0.8-0.8S6.8,6,7.2,6S8,6.3,8,6.8S7.7,7.5,7.2,7.5z M7.5,5C7.2,5,7,4.8,7,4.5
	S7.2,4,7.5,4S8,4.2,8,4.5S7.8,5,7.5,5z"/>
</svg>
