<?xml version="1.0" encoding="utf-8"?>
<!-- Generator: Adobe Illustrator 24.3.0, SVG Export Plug-In . SVG Version: 6.00 Build 0)  -->
<svg version="1.1" id="Layer_1" xmlns="http://www.w3.org/2000/svg" xmlns:xlink="http://www.w3.org/1999/xlink" x="0px" y="0px"
	 viewBox="0 0 12 12" style="enable-background:new 0 0 12 12;" xml:space="preserve">
<style type="text/css">
	.st0{fill:#EA4335;}
</style>
<path class="st0" d="M8.6,3L8.6,3 M11.2,2.2H9.1l0.2-0.8l0.9-0.3c0.2-0.1,0.3-0.3,0.2-0.5c-0.1-0.2-0.3-0.3-0.5-0.3c0,0,0,0,0,0
	L8.9,0.8C8.8,0.8,8.7,0.9,8.6,1L8.3,2.2H5.3c-0.2,0-0.4,0.2-0.4,0.4C4.9,2.8,5,3,5.2,3c0,0,0,0,0,0h0.1l0,0.2c0,0.1,0.1,0.2,0.2,0.2
	c0.9,0,1.7,0.3,2.3,0.7c0.3,0.3,0.6,0.6,0.8,1c0.1,0.2,0.2,0.5,0.2,0.7c0,0,0,0.1,0.1,0.1c0.7,0.4,0.9,1.3,0.6,2c0,0,0,0.1,0,0.1
	c0.1,0.2,0.1,0.5,0.1,0.7c0,0.5-0.2,1-0.5,1.4c-0.2,0.2-0.4,0.4-0.7,0.5c0,0-0.1,0.1-0.1,0.1c-0.1,0.3-0.2,0.5-0.4,0.7
	c0,0,0,0.1,0,0.1c0,0,0,0,0,0h1.2c0.6,0,1.1-0.5,1.1-1L11.2,3h0.1c0.2,0,0.4-0.2,0.4-0.4c0,0,0,0,0,0C11.6,2.4,11.4,2.2,11.2,2.2z"
	/>
<path class="st0" d="M2.5,7.5c0.1,0,0.3,0.1,0.4,0.2L3.3,8c0,0,0.1,0,0.1,0c0,0,0,0,0,0l0.4-0.4c0.1-0.1,0.2-0.2,0.4-0.2h4.6
	C8.9,7.5,9,7.4,9,7.3c0,0,0,0,0,0v0c0-0.4-0.3-0.8-0.8-0.9c0-0.7-0.3-1.3-0.8-1.7C6.9,4.3,6.3,4.1,5.5,4.1H3.8
	C2.2,4.1,1.2,5,1.1,6.4C0.7,6.5,0.4,6.9,0.4,7.3c0,0.1,0.1,0.2,0.2,0.2H2.5z M4.4,8.2c0,0-0.1,0-0.1,0.1L3.7,8.8C3.5,9,3.2,9,3,8.8
	L2.5,8.3c0,0-0.1-0.1-0.1-0.1H0.8c-0.2,0-0.3,0.1-0.4,0.3c0,0.1,0,0.2,0,0.3c0,0.7,0.5,1.3,1.1,1.3c0.1,0.4,0.2,0.7,0.4,0.9
	c0.3,0.4,0.8,0.6,1.3,0.6h3.1c0.5,0,0.9-0.2,1.3-0.6c0.2-0.3,0.3-0.6,0.4-0.9C8.5,10.1,9,9.5,9,8.8c0-0.1,0-0.2,0-0.3
	c0-0.2-0.2-0.3-0.4-0.3H4.4z"/>
</svg>
