<?xml version="1.0" encoding="utf-8"?>
<!-- Generator: Adobe Illustrator 24.3.0, SVG Export Plug-In . SVG Version: 6.00 Build 0)  -->
<svg version="1.1" id="Layer_1" xmlns="http://www.w3.org/2000/svg" xmlns:xlink="http://www.w3.org/1999/xlink" x="0px" y="0px"
	 viewBox="0 0 12 12" style="enable-background:new 0 0 12 12;" xml:space="preserve">
<style type="text/css">
	.st0{fill:#34A853;}
</style>
<path class="st0" d="M11,7v4.8H7.4v-1H4.3v1H1V7H11z M8.9,6.1C8.7,5.5,8.4,5,7.9,4.5c-0.5-0.4-1-0.5-1.7-0.7h0V2.3l0.1,0l0.3-0.1
	c0.1,0,0.2-0.1,0.3-0.1c0.1,0,0.2,0,0.2,0c0.1,0,0.2,0,0.3,0c0.1,0,0.3,0.1,0.4,0.1c0.2,0,0.3,0.1,0.4,0.1c0.1,0,0.2,0,0.3,0
	c0.1,0,0.2,0,0.5-0.1V0.6C8.9,0.6,8.8,0.7,8.7,0.7c-0.1,0-0.2,0-0.3,0c-0.1,0-0.3-0.1-0.4-0.1c-0.1,0-0.3-0.1-0.4-0.1
	c-0.1,0-0.2,0-0.3,0c-0.3,0-0.7,0.1-1,0.2V0.2H5.8v3.6h0C5.1,4.1,4.5,4.2,4.1,4.6C3.6,5,3.3,5.5,3.1,6.1c0,0-0.5-0.1-0.5,0.4h6.7
	C9.4,6,8.9,6.1,8.9,6.1z"/>
</svg>
