<?xml version="1.0" encoding="utf-8"?>
<!-- Generator: Adobe Illustrator 24.3.0, SVG Export Plug-In . SVG Version: 6.00 Build 0)  -->
<svg version="1.1" id="Layer_1" xmlns="http://www.w3.org/2000/svg" xmlns:xlink="http://www.w3.org/1999/xlink" x="0px" y="0px"
	 viewBox="0 0 12 12" style="enable-background:new 0 0 12 12;" xml:space="preserve">
<style type="text/css">
	.st0{fill:#4285F4;}
</style>
<path class="st0" d="M10.4,1.1l-2,0.4l1.4,1.8l1-0.2L10.4,1.1 M7,1.8L6,2l1.4,1.8l1-0.2L7,1.8 M4.5,2.2l-1,0.2l1.4,1.8l1-0.2
	L4.5,2.2 M2.1,2.8L1.6,2.8C1,3,0.7,3.5,0.8,4L1,5l2.5-0.5L2.1,2.8 M1,5v5c0,0.6,0.4,1,1,1h8c0.6,0,1-0.4,1-1V5H1z"/>
</svg>
