<?xml version="1.0" encoding="utf-8"?>
<!-- Generator: Adobe Illustrator 24.3.0, SVG Export Plug-In . SVG Version: 6.00 Build 0)  -->
<svg version="1.1" id="Layer_1" xmlns="http://www.w3.org/2000/svg" xmlns:xlink="http://www.w3.org/1999/xlink" x="0px" y="0px"
	 viewBox="0 0 12 12" style="enable-background:new 0 0 12 12;" xml:space="preserve">
<style type="text/css">
	.st0{fill:none;}
	.st1{fill:#FBBC05;}
</style>
<g>
	<path class="st0" d="M12,0v12H0V0H12z M6.3,11.6L6.3,11.6L6.3,11.6L6.3,11.6L6.3,11.6L6.3,11.6c-0.1,0-0.1,0-0.1,0l0,0l0,0.2l0,0
		l0,0l0.1,0l0,0l0,0l0.1,0l0,0l0,0L6.3,11.6C6.3,11.6,6.3,11.6,6.3,11.6z M6.4,11.6L6.4,11.6L6.4,11.6l-0.1,0.1l0,0l0,0.2l0,0l0,0
		l0.1,0c0,0,0,0,0,0l0,0L6.4,11.6C6.4,11.6,6.4,11.6,6.4,11.6z M6.1,11.6C6.1,11.6,6.1,11.6,6.1,11.6L6.1,11.6l0,0.3c0,0,0,0,0,0
		l0,0l0.1,0l0,0l0,0L6.1,11.6L6.1,11.6L6.1,11.6C6.2,11.6,6.1,11.6,6.1,11.6z"/>
	<path class="st1" d="M6.5,10C6.8,10,7,10.2,7,10.5C7,10.8,6.8,11,6.6,11l-0.1,0h-1C5.2,11,5,10.8,5,10.5C5,10.2,5.2,10,5.4,10
		l0.1,0H6.5z M6,1c2.2,0,4,1.8,4,4c0,1.5-0.8,2.6-1.4,3.2L8.5,8.4L8.3,8.5L8.2,8.6L8,8.7L7.9,8.8C7.8,8.9,7.7,9.1,7.6,9.2L7.5,9.4
		C7.4,9.6,7.2,9.7,6.9,9.7H5.1c-0.3,0-0.4-0.2-0.6-0.4L4.4,9.3C4.4,9.1,4.3,8.9,4.1,8.8L4,8.8L3.9,8.7L3.8,8.6L3.7,8.5L3.5,8.4
		L3.4,8.2C2.8,7.6,2,6.5,2,5C2,2.8,3.8,1,6,1z M6.9,3.1C6.7,3,6.4,3,6.2,3.1l0,0l-1,1C5,4.3,5,4.6,5.1,4.8l0,0l0.6,0.6L5.1,6.1
		C5,6.3,5,6.7,5.1,6.9C5.3,7,5.6,7,5.8,6.9l0,0l1-1C7,5.7,7,5.4,6.9,5.2l0,0L6.2,4.5l0.6-0.6C7,3.7,7,3.3,6.9,3.1z"/>
</g>
</svg>
