<?xml version="1.0" encoding="utf-8"?>
<!-- Generator: Adobe Illustrator 24.3.0, SVG Export Plug-In . SVG Version: 6.00 Build 0)  -->
<svg version="1.1" id="Layer_1" xmlns="http://www.w3.org/2000/svg" xmlns:xlink="http://www.w3.org/1999/xlink" x="0px" y="0px"
	 viewBox="0 0 12 12" style="enable-background:new 0 0 12 12;" xml:space="preserve">
<style type="text/css">
	.st0{fill:#4285F4;}
</style>
<path class="st0" d="M11.2,6.4h-0.9c-0.1,0.3-0.3,0.5-0.4,0.8h1.3V6.4z M0.8,5.6v0.8h0.9C1.5,6.1,1.4,5.9,1.3,5.6H0.8z"/>
<path class="st0" d="M7.1,6.1L5.9,8.5L4.8,4.8L4,6.4H1.6c0.2,0.5,0.6,1,1,1.4c0.9,1.1,2.2,1.9,3.2,2.5L6,10.5l0.2-0.1
	c1-0.7,2.3-1.4,3.2-2.5c0.2-0.2,0.4-0.5,0.5-0.7H7.6L7.1,6.1z"/>
<path class="st0" d="M5,2.7l1.1,3.8l1-2.1l1,2h2.3c0.3-0.7,0.5-1.5,0.5-2.2c0-1.5-1.2-2.6-2.6-2.6C7.1,1.5,6.4,2.2,6,2.6
	C5.6,2.2,4.9,1.5,3.7,1.5c-1.4,0-2.6,1.2-2.6,2.6c0,0.5,0.1,1,0.2,1.5h2.2L5,2.7z"/>
</svg>
