<?xml version="1.0" encoding="utf-8"?>
<!-- Generator: Adobe Illustrator 24.3.0, SVG Export Plug-In . SVG Version: 6.00 Build 0)  -->
<svg version="1.1" id="Layer_1" xmlns="http://www.w3.org/2000/svg" xmlns:xlink="http://www.w3.org/1999/xlink" x="0px" y="0px"
	 viewBox="0 0 12 12" style="enable-background:new 0 0 12 12;" xml:space="preserve">
<style type="text/css">
	.st0{fill:#EA4335;}
</style>
<path class="st0" d="M3.4,4.9h1.5v2.2H3.4V4.9z M10.9,2.6v7.5c0,0.1-0.1,0.3-0.2,0.3c-0.1,0.1-0.2,0.1-0.4,0L9,9.8l-1.3,0.7
	c-0.1,0.1-0.2,0.1-0.3,0L6,9.8l-1.3,0.7c-0.1,0.1-0.2,0.1-0.3,0L3,9.8l-1.3,0.7c-0.1,0.1-0.3,0.1-0.4,0c-0.1-0.1-0.2-0.2-0.2-0.3
	V2.6c0-0.4,0.3-0.8,0.8-0.8h8.2C10.5,1.9,10.9,2.2,10.9,2.6z M5.6,4.5c0-0.2-0.2-0.4-0.4-0.4H3c-0.2,0-0.4,0.2-0.4,0.4v3
	c0,0.2,0.2,0.4,0.4,0.4h2.2c0.2,0,0.4-0.2,0.4-0.4V4.5z M9.4,6.8c0-0.2-0.2-0.4-0.4-0.4H6.8c-0.2,0-0.4,0.2-0.4,0.4s0.2,0.4,0.4,0.4
	H9C9.2,7.1,9.4,7,9.4,6.8z M9.4,5.2C9.4,5,9.2,4.9,9,4.9H6.8C6.5,4.9,6.4,5,6.4,5.2s0.2,0.4,0.4,0.4H9C9.2,5.6,9.4,5.5,9.4,5.2z"/>
</svg>
