<?xml version="1.0" encoding="utf-8"?>
<!-- Generator: Adobe Illustrator 24.3.0, SVG Export Plug-In . SVG Version: 6.00 Build 0)  -->
<svg version="1.1" id="Layer_1" xmlns="http://www.w3.org/2000/svg" xmlns:xlink="http://www.w3.org/1999/xlink" x="0px" y="0px"
	 viewBox="0 0 12 12" style="enable-background:new 0 0 12 12;" xml:space="preserve">
<style type="text/css">
	.st0{fill:#EA4335;}
</style>
<path class="st0" d="M4.8,4.7v2.7c0,0.2,0.1,0.3,0.3,0.4s0.3,0.1,0.5,0l2.1-1.3C7.8,6.3,7.8,6.2,7.8,6S7.8,5.7,7.6,5.6L5.5,4.2
	C5.4,4.1,5.2,4.1,5,4.2C4.8,4.3,4.8,4.5,4.8,4.7z M6,11c-0.7,0-1.3-0.1-1.9-0.4C3.4,10.3,2.9,10,2.5,9.5S1.7,8.6,1.4,8
	C1.1,7.3,1,6.7,1,6s0.1-1.3,0.4-1.9C1.7,3.4,2,2.9,2.5,2.5s1-0.8,1.6-1.1C4.7,1.1,5.3,1,6,1s1.3,0.1,1.9,0.4C8.6,1.7,9.1,2,9.5,2.5
	c0.4,0.5,0.8,1,1.1,1.6C10.9,4.7,11,5.3,11,6s-0.1,1.3-0.4,1.9C10.3,8.6,10,9.1,9.5,9.5c-0.4,0.4-1,0.8-1.6,1.1
	C7.3,10.9,6.7,11,6,11z"/>
</svg>
