<?xml version="1.0" encoding="utf-8"?>
<!-- Generator: Adobe Illustrator 24.3.0, SVG Export Plug-In . SVG Version: 6.00 Build 0)  -->
<svg version="1.1" id="Layer_1" xmlns="http://www.w3.org/2000/svg" xmlns:xlink="http://www.w3.org/1999/xlink" x="0px" y="0px"
	 viewBox="0 0 12 12" style="enable-background:new 0 0 12 12;" xml:space="preserve">
<style type="text/css">
	.st0{fill:#4285F4;}
</style>
<path class="st0" d="M2.7,0l2.4,6.7v0l0.2,0.5c1,3,1.6,4.5,1.6,4.5l0.4,0c0.6,0,1.3,0.1,1.8,0.2c0.1,0,0.2,0,0.2,0L6.7,4.7L5.5,1.3
	C5.4,0.9,5.2,0.5,5.1,0l0,0L2.7,0L2.7,0z M6.9,0l0,2.7l0,2.7L6.7,4.7l-0.3,5.9c0.3,0.8,0.4,1.2,0.4,1.2s0.2,0,0.3,0
	c0.6,0,1.3,0.1,1.8,0.2c0.1,0,0.2,0,0.2,0c0,0,0-2.7,0-6l0-6L6.9,0z M2.7,0v6c0,3.3,0,6,0,6c0,0,0.2,0,0.5,0c0.3,0,0.5-0.1,0.8-0.1
	c0.3,0,1-0.1,1.1-0.1c0,0,0-0.1,0-2.5l0-2.5l0.2,0.5l0.1,0.2l0.3-5.9L5.5,1.3L5.1,0L2.7,0z"/>
</svg>
