<?xml version="1.0" encoding="utf-8"?>
<!-- Generator: Adobe Illustrator 24.3.0, SVG Export Plug-In . SVG Version: 6.00 Build 0)  -->
<svg version="1.1" id="Layer_1" xmlns="http://www.w3.org/2000/svg" xmlns:xlink="http://www.w3.org/1999/xlink" x="0px" y="0px"
	 viewBox="0 0 12 12" style="enable-background:new 0 0 12 12;" xml:space="preserve">
<style type="text/css">
	.st0{fill:#34A853;}
</style>
<path class="st0" d="M5.5,7.5v1c0,0.1,0,0.3,0.1,0.4C5.7,9,5.9,9,6,9s0.3,0,0.4-0.1c0.1-0.1,0.1-0.2,0.1-0.4v-1h1
	c0.1,0,0.3,0,0.4-0.1C8,7.3,8,7.1,8,7s0-0.3-0.1-0.4C7.8,6.5,7.6,6.5,7.5,6.5h-1v-1c0-0.1,0-0.3-0.1-0.4C6.3,5,6.1,5,6,5
	S5.7,5,5.6,5.1C5.5,5.2,5.5,5.4,5.5,5.5v1h-1c-0.1,0-0.3,0-0.4,0.1C4,6.7,4,6.9,4,7s0,0.3,0.1,0.4c0.1,0.1,0.2,0.1,0.4,0.1H5.5z
	 M2,11c-0.3,0-0.5-0.1-0.7-0.3C1.1,10.5,1,10.3,1,10V4c0-0.3,0.1-0.5,0.3-0.7C1.5,3.1,1.7,3,2,3h2V2c0-0.3,0.1-0.5,0.3-0.7
	C4.5,1.1,4.7,1,5,1h2c0.3,0,0.5,0.1,0.7,0.3C7.9,1.5,8,1.7,8,2v1h2c0.3,0,0.5,0.1,0.7,0.3C10.9,3.5,11,3.7,11,4v6
	c0,0.3-0.1,0.5-0.3,0.7C10.5,10.9,10.3,11,10,11H2z M5,3h2V2H5V3z"/>
</svg>
