<?xml version="1.0" encoding="utf-8"?>
<!-- Generator: Adobe Illustrator 24.3.0, SVG Export Plug-In . SVG Version: 6.00 Build 0)  -->
<svg version="1.1" id="Layer_1" xmlns="http://www.w3.org/2000/svg" xmlns:xlink="http://www.w3.org/1999/xlink" x="0px" y="0px"
	 viewBox="0 0 12 12" style="enable-background:new 0 0 12 12;" xml:space="preserve">
<style type="text/css">
	.st0{fill:#FBBC05;}
</style>
<path class="st0" d="M6,0.5c-1.1,0-2,0.1-2.7,0.2C2.9,0.7,2.6,0.8,2.4,0.9C2.3,0.9,2.2,1,2.1,1C2,1.1,2,1.2,1.9,1.3h0
	c0,0.2,0,0.5,0,0.7H1.3c0-0.2,0-0.4,0-0.6L0.7,1.3C0.5,3.8,1.5,6.2,3.3,8l0.4-0.7C3.6,7.2,3.5,7.1,3.4,7c0.1-0.1,0.3-0.3,0.5-0.4
	c0.3,0.3,0.7,0.6,1,0.7C5.4,7.8,5,8,4.3,8.2C5.7,8.4,5.2,9.6,4,10.4c-0.1,0-0.1,0-0.1,0c-0.3,0-0.5,0.1-0.7,0.1
	c-0.1,0-0.2,0.1-0.2,0.1c-0.1,0-0.2,0.1-0.2,0.3c0,0.1,0.1,0.2,0.2,0.3c0.1,0,0.1,0.1,0.2,0.1c0.2,0.1,0.4,0.1,0.7,0.1
	c0.6,0.1,1.3,0.1,2.2,0.1c0.8,0,1.6,0,2.2-0.1c0.3,0,0.5-0.1,0.7-0.1c0.1,0,0.2-0.1,0.2-0.1c0.1,0,0.2-0.1,0.2-0.3
	c0-0.1-0.1-0.2-0.2-0.3S9,10.5,8.9,10.5c-0.2-0.1-0.4-0.1-0.7-0.1c0,0-0.1,0-0.1,0C6.8,9.6,6.3,8.4,7.7,8.2C7,8,6.6,7.8,7.2,7.3
	c0.4-0.2,0.7-0.4,1-0.7C8.3,6.7,8.5,6.8,8.6,7C8.5,7.1,8.4,7.2,8.3,7.3L8.7,8c1.9-1.7,2.7-4.2,2.6-6.7l-0.6,0.2c0,0.2,0,0.4,0,0.5
	h-0.6c0-0.2,0-0.5,0-0.7h0c0-0.1-0.1-0.2-0.2-0.3C9.8,1,9.7,0.9,9.6,0.9C9.4,0.8,9.1,0.7,8.8,0.7C8,0.6,7.1,0.5,6,0.5L6,0.5z M6,0.9
	c1.1,0,2,0.1,2.7,0.2C9,1.2,9.3,1.2,9.5,1.3c0,0,0,0,0.1,0c0,0,0,0-0.1,0C9.3,1.4,9,1.5,8.7,1.5C8,1.6,7.1,1.7,6,1.7
	C5,1.7,4,1.6,3.3,1.5C3,1.5,2.7,1.4,2.5,1.3c0,0,0,0-0.1,0c0,0,0,0,0.1,0C2.7,1.2,3,1.2,3.3,1.1C4,1,5,0.9,6,0.9L6,0.9z M1.4,2.6H2
	C2.2,4,2.7,5.2,3.3,6.1C3.2,6.2,3,6.3,2.9,6.5C2,5.4,1.5,4,1.4,2.6z M10,2.6h0.6C10.5,4,10,5.4,9.1,6.4C9,6.3,8.8,6.2,8.7,6
	C9.3,5.2,9.8,4,10,2.6L10,2.6z"/>
</svg>
