<?xml version="1.0" encoding="utf-8"?>
<!-- Generator: Adobe Illustrator 24.3.0, SVG Export Plug-In . SVG Version: 6.00 Build 0)  -->
<svg version="1.1" id="Layer_1" xmlns="http://www.w3.org/2000/svg" xmlns:xlink="http://www.w3.org/1999/xlink" x="0px" y="0px"
	 viewBox="0 0 12 12" style="enable-background:new 0 0 12 12;" xml:space="preserve">
<style type="text/css">
	.st0{fill:#EA4335;}
</style>
<path class="st0" d="M6,0.8C3.1,0.8,0.8,3.1,0.8,6s2.4,5.2,5.2,5.2s5.2-2.4,5.2-5.2S8.9,0.8,6,0.8z M8.9,7.7L6,9.3L3.1,7.7V4.4
	l1.3-0.7l0,0h0L6,2.7l1.6,0.9h0l0,0l1.3,0.7L8.9,7.7L8.9,7.7z M3.6,6.3l1,0.6V8l1.1,0.7V6.1L3.6,4.9V6.3z M6,4.5L4.9,3.9L3.8,4.5
	L6,5.7l2.2-1.3L7.1,3.9L6,4.5z M6.2,8.6L7.4,8V6.9l1-0.6V4.9L6.2,6.2V8.6z"/>
</svg>
