<?xml version="1.0" encoding="utf-8"?>
<!-- Generator: Adobe Illustrator 24.3.0, SVG Export Plug-In . SVG Version: 6.00 Build 0)  -->
<svg version="1.1" id="Layer_1" xmlns="http://www.w3.org/2000/svg" xmlns:xlink="http://www.w3.org/1999/xlink" x="0px" y="0px"
	 viewBox="0 0 12 12" style="enable-background:new 0 0 12 12;" xml:space="preserve">
<style type="text/css">
	.st0{fill:#FBBC05;}
</style>
<path class="st0" d="M6,1c1.7,0,3,1.3,3,3c0,2.2-3,5.5-3,5.5S3,6.2,3,4C3,2.3,4.3,1,6,1 M6,3C5.4,3,5,3.4,5,4s0.4,1,1,1s1-0.4,1-1
	S6.6,3,6,3 M10,9.5c0,1.1-1.8,2-4,2s-4-0.9-4-2c0-0.6,0.6-1.2,1.6-1.6l0.3,0.5C3.3,8.6,3,8.9,3,9.2c0,0.7,1.3,1.2,3,1.2s3-0.6,3-1.2
	c0-0.3-0.3-0.7-0.9-0.9l0.3-0.5C9.4,8.3,10,8.9,10,9.5z"/>
</svg>
