<?xml version="1.0" encoding="utf-8"?>
<!-- Generator: Adobe Illustrator 24.3.0, SVG Export Plug-In . SVG Version: 6.00 Build 0)  -->
<svg version="1.1" id="Layer_1" xmlns="http://www.w3.org/2000/svg" xmlns:xlink="http://www.w3.org/1999/xlink" x="0px" y="0px"
	 viewBox="0 0 24 24" style="enable-background:new 0 0 24 24;" xml:space="preserve">
<style type="text/css">
	.st0{fill:#34A853;}
</style>
<path class="st0" d="M17.7,11.2c-0.2-0.3-0.5-0.6-0.8-0.8c-0.7-0.6-1.4-1-2.1-1.7C13.3,7.3,13,4.8,13.9,3c-0.9,0.2-1.8,0.8-2.5,1.3
	c-2.6,2.1-3.6,5.7-2.4,8.9c0,0.1,0.1,0.2,0.1,0.3C9.1,13.8,9,14,8.8,14c-0.2,0.1-0.5,0-0.7-0.1c-0.1,0-0.1-0.1-0.1-0.2
	c-1.1-1.4-1.3-3.5-0.6-5.1C5.8,10,4.9,12.3,5,14.5c0.1,0.5,0.1,1,0.3,1.5c0.1,0.6,0.4,1.2,0.7,1.7c1.1,1.7,2.9,3,5,3.2
	c2.1,0.3,4.4-0.1,6.1-1.6c1.8-1.7,2.5-4.3,1.5-6.6l-0.1-0.3C18.2,12,17.7,11.2,17.7,11.2 M14.5,17.5c-0.3,0.2-0.7,0.5-1.1,0.6
	c-1.1,0.4-2.2-0.2-2.9-0.8c1.2-0.3,1.9-1.2,2.1-2.1c0.2-0.8-0.1-1.5-0.3-2.2c-0.1-0.7-0.1-1.4,0.2-2.1c0.2,0.4,0.4,0.8,0.6,1.1
	c0.8,1,2,1.4,2.2,2.8c0,0.1,0.1,0.3,0.1,0.4C15.5,16.1,15.1,17,14.5,17.5z"/>
</svg>
