<?xml version="1.0" encoding="utf-8"?>
<!-- Generator: Adobe Illustrator 24.3.0, SVG Export Plug-In . SVG Version: 6.00 Build 0)  -->
<svg version="1.1" id="Layer_1" xmlns="http://www.w3.org/2000/svg" xmlns:xlink="http://www.w3.org/1999/xlink" x="0px" y="0px"
	 viewBox="0 0 12 12" style="enable-background:new 0 0 12 12;" xml:space="preserve">
<style type="text/css">
	.st0{fill:#4285F4;}
</style>
<path class="st0" d="M9,7.2V5.5C9,5.2,8.8,5,8.5,5H8c1.1-0.8,1.4-2.4,0.6-3.5C7.8,0.4,6.2,0.1,5.1,0.9C4.8,1.2,4.5,1.5,4.3,1.9
	C3.1,1.1,1.6,1.5,0.9,2.7c0,0,0,0,0,0C0.1,3.9,0.5,5.4,1.7,6.1C1.8,6.2,1.9,6.2,2,6.3v4.2C2,10.8,2.2,11,2.5,11h6
	C8.8,11,9,10.8,9,10.5V8.8l2,2V5.2L9,7.2 M6.5,2c0.6,0,1,0.4,1,1s-0.4,1-1,1s-1-0.4-1-1S5.9,2,6.5,2 M3,3c0.6,0,1,0.4,1,1S3.6,5,3,5
	S2,4.6,2,4S2.4,3,3,3z"/>
</svg>
