<?xml version="1.0" encoding="utf-8"?>
<!-- Generator: Adobe Illustrator 24.3.0, SVG Export Plug-In . SVG Version: 6.00 Build 0)  -->
<svg version="1.1" id="Layer_1" xmlns="http://www.w3.org/2000/svg" xmlns:xlink="http://www.w3.org/1999/xlink" x="0px" y="0px"
	 viewBox="0 0 12 12" style="enable-background:new 0 0 12 12;" xml:space="preserve">
<style type="text/css">
	.st0{fill:#EA4335;}
</style>
<path class="st0" d="M5.2,2.1c-0.1,0-0.2,0-0.3,0c-0.2,0-0.4,0-0.5,0.1c0,0-0.1,0-0.1,0c0,0,0.1,0.1,0.1,0.1
	c0.2,0.1,0.5,0.3,0.9,0.4C6,3.1,7,3.4,7.8,3.4c0.3,0,0.5-0.1,0.6-0.2C8.5,3.1,8.6,3,8.6,2.9c0,0,0-0.1-0.1-0.2
	C8.3,2.7,8.2,2.6,8,2.5C7.6,2.4,7,2.3,6.5,2.2C6,2.1,5.6,2.1,5.2,2.1L5.2,2.1L5.2,2.1z M4.1,2.6C3.9,3.1,3.6,3.6,3.4,4
	C3.6,4.2,3.8,4.3,4,4.4c0.2-0.2,0.5-0.3,0.5-0.3S4.4,4.4,4.3,4.6c0.3,0.2,0.6,0.3,0.8,0.5c0.2-0.3,0.7-0.5,0.7-0.5S5.6,5,5.5,5.3
	c0.3,0.1,0.6,0.2,0.8,0.3c0.1,0,0.2,0.1,0.3,0.1c0.1-0.4,0.5-0.8,0.5-0.8s0.1,0.5,0,0.9c0.4,0.1,0.7,0.1,1,0.1
	C8.3,5.5,8.4,5,8.3,4.6c0.3,0.3,0.4,0.7,0.4,1.1c0,0,0.1,0,0.1-0.1C8.8,5.1,8.7,4.2,8.7,3.5c0,0,0,0,0,0C8.4,3.7,8.1,3.9,7.7,3.8
	C6.9,3.8,5.9,3.5,5.1,3.2C4.7,3,4.4,2.8,4.2,2.7C4.1,2.6,4.1,2.6,4.1,2.6z M2.7,4.3C1.8,4.3,1,4.4,0.5,5C0.1,5.5,3,8,5.8,9.2
	c2.1,0.8,4.1,1.2,5.4-0.3c1.2-1.5-0.5-3.3-1.9-4.2c0.1,0.8,0.2,1.5,0.2,1.5v0c0,0.2-0.1,0.4-0.2,0.6C9,7,8.8,7.1,8.6,7.2
	c-0.5,0.1-1.1,0.1-1.8,0c-1.4-0.3-3-1-4-2.1L2.7,4.9l0-0.1c0-0.1,0.1-0.3,0.2-0.5C2.8,4.3,2.8,4.3,2.7,4.3z M3.3,4.4
	C3.2,4.6,3.2,4.7,3.2,4.8c0.2,0.2,0.5,0.5,0.8,0.7C3.9,5.3,3.8,5,3.8,4.8C3.6,4.7,3.5,4.6,3.3,4.4z M4.1,5c0,0.2-0.1,0.4-0.1,0.6
	C4.4,5.8,4.8,6,5.2,6.2C5.1,6,5,5.7,5,5.5C4.7,5.3,4.4,5.2,4.1,5z M5.4,5.7c0,0.2-0.1,0.4-0.1,0.6c0.4,0.2,0.9,0.3,1.3,0.4
	c0-0.2-0.1-0.4-0.1-0.5C6.5,6.1,6.3,6,6.2,6C6,5.9,5.7,5.8,5.4,5.7z M9,6.1c-0.1,0-0.1,0-0.2,0.1c0,0.2,0,0.3-0.1,0.5
	c0.1,0,0.1-0.1,0.2-0.1C9,6.5,9,6.4,9,6.3C9,6.3,9,6.2,9,6.1z M7.1,6.2C7,6.4,7,6.6,6.9,6.7c0.6,0.1,1.2,0.1,1.6,0h0
	C8.4,6.6,8.4,6.4,8.3,6.3C7.9,6.3,7.5,6.3,7.1,6.2z"/>
</svg>
