<?xml version="1.0" encoding="utf-8"?>
<!-- Generator: Adobe Illustrator 24.3.0, SVG Export Plug-In . SVG Version: 6.00 Build 0)  -->
<svg version="1.1" id="Layer_1" xmlns="http://www.w3.org/2000/svg" xmlns:xlink="http://www.w3.org/1999/xlink" x="0px" y="0px"
	 viewBox="0 0 12 12" style="enable-background:new 0 0 12 12;" xml:space="preserve">
<style type="text/css">
	.st0{fill-rule:evenodd;clip-rule:evenodd;fill:#FBBC05;}
</style>
<path class="st0" d="M10.8,6c0,2.7-2.1,4.8-4.8,4.8S1.2,8.7,1.2,6S3.3,1.2,6,1.2S10.8,3.3,10.8,6z M6.6,3.6c0,0.3-0.3,0.6-0.6,0.6
	c-0.3,0-0.6-0.3-0.6-0.6S5.7,3,6,3C6.3,3,6.6,3.3,6.6,3.6z M5.4,5.4C5.1,5.4,4.8,5.7,4.8,6c0,0.3,0.3,0.6,0.6,0.6v1.8
	C5.4,8.7,5.7,9,6,9h0.6c0.3,0,0.6-0.3,0.6-0.6S6.9,7.8,6.6,7.8V6c0-0.3-0.3-0.6-0.6-0.6H5.4z"/>
</svg>
