<?xml version="1.0" encoding="utf-8"?>
<!-- Generator: Adobe Illustrator 24.3.0, SVG Export Plug-In . SVG Version: 6.00 Build 0)  -->
<svg version="1.1" id="Layer_1" xmlns="http://www.w3.org/2000/svg" xmlns:xlink="http://www.w3.org/1999/xlink" x="0px" y="0px"
	 viewBox="0 0 12 12" style="enable-background:new 0 0 12 12;" xml:space="preserve">
<style type="text/css">
	.st0{fill:#34A853;}
</style>
<path class="st0" d="M1.9,5.2h0.8v5.4h1.3V6h1.3v4.6h1.3V6h1.3v4.6H9V5.2h0.8c0.2,0,0.4-0.2,0.4-0.4c0-0.1-0.1-0.2-0.2-0.3l0,0l0,0
	l0,0L6,2.5V1.9C6.8,2.2,7.4,1.6,8.3,2V0.6C7.4,0.3,6.8,0.9,6,0.5V0.4c0-0.1-0.1-0.2-0.2-0.2c-0.1,0-0.2,0.1-0.2,0.2v2l-4,2.1l0,0
	l0,0v0C1.5,4.6,1.4,4.7,1.4,4.8C1.4,5.1,1.6,5.2,1.9,5.2z M2.3,11l-0.8,0.8h8.8L9.4,11H2.3z"/>
</svg>
