<?xml version="1.0" encoding="utf-8"?>
<!-- Generator: Adobe Illustrator 24.3.0, SVG Export Plug-In . SVG Version: 6.00 Build 0)  -->
<svg version="1.1" id="Layer_1" xmlns="http://www.w3.org/2000/svg" xmlns:xlink="http://www.w3.org/1999/xlink" x="0px" y="0px"
	 viewBox="0 0 12 12" style="enable-background:new 0 0 12 12;" xml:space="preserve">
<style type="text/css">
	.st0{fill:#FBBC05;}
</style>
<path class="st0" d="M2,5.5h3c0.3,0,0.5-0.2,0.5-0.5V2c0-0.3-0.2-0.5-0.5-0.5H2C1.7,1.5,1.5,1.7,1.5,2v3C1.5,5.3,1.7,5.5,2,5.5z
	 M7,5.5h3c0.3,0,0.5-0.2,0.5-0.5V2c0-0.3-0.2-0.5-0.5-0.5H7C6.7,1.5,6.5,1.7,6.5,2v3C6.5,5.3,6.7,5.5,7,5.5z M2,10.5h3
	c0.3,0,0.5-0.2,0.5-0.5V7c0-0.3-0.2-0.5-0.5-0.5H2C1.7,6.5,1.5,6.7,1.5,7v3C1.5,10.3,1.7,10.5,2,10.5z M8.5,10.5c1.1,0,2-0.9,2-2
	s-0.9-2-2-2s-2,0.9-2,2S7.4,10.5,8.5,10.5z"/>
</svg>
