<?xml version="1.0" encoding="utf-8"?>
<!-- Generator: Adobe Illustrator 24.3.0, SVG Export Plug-In . SVG Version: 6.00 Build 0)  -->
<svg version="1.1" id="Layer_1" xmlns="http://www.w3.org/2000/svg" xmlns:xlink="http://www.w3.org/1999/xlink" x="0px" y="0px"
	 viewBox="0 0 12 12" style="enable-background:new 0 0 12 12;" xml:space="preserve">
<style type="text/css">
	.st0{fill:#FBBC05;}
</style>
<path class="st0" d="M5,4.2v3.5C5,8,5.2,8.1,5.4,7.9l2.3-1.8c0.1-0.1,0.1-0.3,0-0.4L5.4,4.1C5.3,4,5.1,4,5.1,4.1C5,4.1,5,4.2,5,4.2z
	 M5.5,1.6c0-0.3-0.3-0.6-0.6-0.5C4.3,1.2,3.8,1.5,3.3,1.8C3.1,1.9,3,2.3,3.3,2.5c0.2,0.2,0.4,0.2,0.6,0.1c0.4-0.2,0.8-0.4,1.3-0.5
	C5.3,2,5.5,1.8,5.5,1.6z M2.5,3.3C2.3,3,1.9,3.1,1.8,3.3c-0.3,0.5-0.5,1-0.6,1.6C1.1,5.2,1.3,5.5,1.6,5.5c0.2,0,0.4-0.2,0.5-0.4
	c0.1-0.5,0.3-0.9,0.5-1.3C2.8,3.7,2.7,3.4,2.5,3.3z M1.6,6.5C1.3,6.5,1,6.8,1.1,7.1c0.1,0.6,0.4,1.1,0.6,1.6C1.9,8.9,2.3,9,2.5,8.7
	c0.2-0.2,0.2-0.4,0.1-0.6C2.4,7.8,2.2,7.3,2.1,6.9C2.1,6.6,1.8,6.5,1.6,6.5z M3.3,10.2c0.5,0.3,1,0.5,1.6,0.6
	c0.3,0.1,0.6-0.2,0.6-0.5c0-0.2-0.2-0.4-0.4-0.5C4.7,9.8,4.3,9.6,3.9,9.4C3.7,9.3,3.4,9.3,3.3,9.5C3.1,9.6,3.1,10,3.3,10.2
	C3.3,10.2,3.3,10.2,3.3,10.2z M11,6c0,2.4-1.6,4.4-3.9,4.9c-0.3,0.1-0.6-0.2-0.6-0.5c0-0.2,0.2-0.4,0.4-0.5C8.7,9.5,10,7.9,10,6
	S8.7,2.5,6.9,2.1c-0.2,0-0.4-0.3-0.4-0.5c0-0.3,0.3-0.6,0.6-0.5C9.4,1.6,11,3.6,11,6z"/>
</svg>
